<svg width="148" height="148" viewBox="0 0 148 148" fill="none" xmlns="http://www.w3.org/2000/svg">
<path d="M27.7963 41.4063C27.7963 37.672 27.7963 35.8049 28.5345 34.3837C29.1566 33.1861 30.1331 32.2096 31.3308 31.5875C32.752 30.8492 34.6191 30.8492 38.3533 30.8492H65.9091C67.4977 30.8492 68.2919 30.8492 69.041 31.0276C69.6778 31.1793 70.2884 31.4254 70.8523 31.7579C71.5156 32.149 72.0877 32.6999 73.232 33.8018L73.909 34.4538C75.0533 35.5557 75.6254 36.1066 76.2887 36.4977C76.8526 36.8302 77.4632 37.0764 78.1 37.228C78.8491 37.4064 79.6433 37.4064 81.2319 37.4064H109.04C112.774 37.4064 114.641 37.4064 116.062 38.1447C117.26 38.7668 118.237 39.7433 118.859 40.9409C119.597 42.3621 119.597 44.2292 119.597 47.9635V110.814C119.597 112.681 119.597 113.615 119.228 114.325C118.917 114.924 118.429 115.413 117.83 115.724C117.119 116.093 116.186 116.093 114.318 116.093H37.2976C33.9368 116.093 32.2564 116.093 30.9773 115.428C29.8994 114.868 29.0206 113.99 28.4607 112.912C27.7963 111.633 27.7963 109.952 27.7963 106.591V41.4063Z" fill="url(#paint0_linear_26_1058)"/>
<g filter="url(#filter0_b_26_1058)">
<path d="M52.1028 60.4222C53.0301 57.2326 53.4937 55.6378 54.7182 54.7185C55.9427 53.7993 57.6031 53.7993 60.9238 53.7993H121.398C126.627 53.7993 129.241 53.7993 130.619 55.4973C131.997 57.1953 131.458 59.7537 130.381 64.8706L121.132 108.804C120.397 112.295 120.029 114.041 118.765 115.067C117.501 116.093 115.717 116.093 112.149 116.093H34.3538C37.7455 112.404 37.7455 108.716 41.1371 97.6505C43.5705 89.7118 49.1462 70.5927 52.1028 60.4222Z" fill="#B9DDFF" fill-opacity="0.6"/>
<path d="M52.3966 60.5076C52.8623 58.9058 53.2046 57.7299 53.5809 56.8379C53.9541 55.9532 54.3488 55.3784 54.9019 54.9632C55.455 54.548 56.117 54.3295 57.0704 54.2181C58.0318 54.1057 59.2562 54.1053 60.9238 54.1053H121.398C124.022 54.1053 125.957 54.106 127.409 54.3144C128.854 54.5216 129.762 54.9268 130.381 55.6901C131.001 56.4533 131.21 57.4258 131.115 58.882C131.02 60.3464 130.622 62.2398 130.082 64.8075L120.832 108.741C120.463 110.494 120.192 111.782 119.857 112.761C119.526 113.733 119.143 114.366 118.572 114.829C118.002 115.292 117.303 115.536 116.284 115.661C115.257 115.786 113.94 115.787 112.149 115.787H35.0294C36.4742 114.06 37.2604 112.264 38.038 109.728C38.3909 108.576 38.7438 107.266 39.1553 105.738C39.2404 105.422 39.328 105.097 39.4187 104.761C39.9482 102.803 40.5832 100.502 41.4296 97.7402C43.8638 89.7988 49.4403 70.6771 52.3966 60.5076Z" stroke="url(#paint1_linear_26_1058)" stroke-width="0.611895"/>
</g>
<path d="M41.1555 40.6849C41.1555 39.0094 42.5138 37.6511 44.1894 37.6511H57.3038C58.9793 37.6511 60.3376 39.0094 60.3376 40.6849C60.3376 42.3605 58.9793 43.7188 57.3038 43.7188H44.1894C42.5138 43.7188 41.1555 42.3605 41.1555 40.6849Z" fill="url(#paint2_linear_26_1058)" fill-opacity="0.9" stroke="url(#paint3_linear_26_1058)" stroke-width="0.489516"/>
<defs>
<filter id="filter0_b_26_1058" x="21.2394" y="40.6849" width="123.318" height="88.5221" filterUnits="userSpaceOnUse" color-interpolation-filters="sRGB">
<feFlood flood-opacity="0" result="BackgroundImageFix"/>
<feGaussianBlur in="BackgroundImage" stdDeviation="6.55719"/>
<feComposite in2="SourceAlpha" operator="in" result="effect1_backgroundBlur_26_1058"/>
<feBlend mode="normal" in="SourceGraphic" in2="effect1_backgroundBlur_26_1058" result="shape"/>
</filter>
<linearGradient id="paint0_linear_26_1058" x1="54.2772" y1="49.4962" x2="123.545" y2="75.1491" gradientUnits="userSpaceOnUse">
<stop stop-color="#7FC0FB"/>
<stop offset="1" stop-color="#4088F4"/>
</linearGradient>
<linearGradient id="paint1_linear_26_1058" x1="29.4359" y1="58.2488" x2="64.204" y2="142.091" gradientUnits="userSpaceOnUse">
<stop stop-color="white"/>
<stop offset="0.765625" stop-color="white" stop-opacity="0"/>
</linearGradient>
<linearGradient id="paint2_linear_26_1058" x1="39.4157" y1="36.9682" x2="66.3391" y2="44.9228" gradientUnits="userSpaceOnUse">
<stop stop-color="white"/>
<stop offset="1" stop-color="white" stop-opacity="0"/>
</linearGradient>
<linearGradient id="paint3_linear_26_1058" x1="37.58" y1="38.8039" x2="50.7466" y2="43.9635" gradientUnits="userSpaceOnUse">
<stop stop-color="white"/>
<stop offset="1" stop-color="white" stop-opacity="0"/>
</linearGradient>
</defs>
</svg>
