<svg width="148" height="148" viewBox="0 0 148 148" fill="none" xmlns="http://www.w3.org/2000/svg">
<circle cx="74.3782" cy="101.529" r="26.1023" fill="url(#paint0_linear_26_44)"/>
<g filter="url(#filter0_b_26_44)">
<mask id="path-2-inside-1_26_44" fill="white">
<path fill-rule="evenodd" clip-rule="evenodd" d="M60.9704 32.1222C60.9704 24.7169 66.9735 18.7137 74.3788 18.7137C81.7841 18.7137 87.7872 24.7169 87.7872 32.1222C87.7872 35.5619 86.492 38.6991 84.3627 41.0727C98.4562 44.2637 108.988 56.0261 110.607 70.3888L112.925 90.9588C112.981 91.4638 113.01 91.9647 113.01 92.4602H114.113C118.087 92.4602 121.309 95.6818 121.309 99.6558C121.309 103.225 118.689 106.261 115.153 106.744C84.6479 110.911 64.9202 110.875 33.6271 106.72C30.0844 106.25 27.4498 103.214 27.4498 99.6397C27.4498 95.6745 30.6642 92.4602 34.6293 92.4602H35.7479C35.7488 91.9647 35.777 91.4638 35.8339 90.9588L38.1516 70.3888C39.7699 56.0263 50.3019 44.264 64.3951 41.0728C62.2656 38.6992 60.9704 35.562 60.9704 32.1222Z"/>
</mask>
<path fill-rule="evenodd" clip-rule="evenodd" d="M60.9704 32.1222C60.9704 24.7169 66.9735 18.7137 74.3788 18.7137C81.7841 18.7137 87.7872 24.7169 87.7872 32.1222C87.7872 35.5619 86.492 38.6991 84.3627 41.0727C98.4562 44.2637 108.988 56.0261 110.607 70.3888L112.925 90.9588C112.981 91.4638 113.01 91.9647 113.01 92.4602H114.113C118.087 92.4602 121.309 95.6818 121.309 99.6558C121.309 103.225 118.689 106.261 115.153 106.744C84.6479 110.911 64.9202 110.875 33.6271 106.72C30.0844 106.25 27.4498 103.214 27.4498 99.6397C27.4498 95.6745 30.6642 92.4602 34.6293 92.4602H35.7479C35.7488 91.9647 35.777 91.4638 35.8339 90.9588L38.1516 70.3888C39.7699 56.0263 50.3019 44.264 64.3951 41.0728C62.2656 38.6992 60.9704 35.562 60.9704 32.1222Z" fill="#6AE092" fill-opacity="0.6"/>
<path d="M84.3627 41.0727L83.9072 40.6641C83.7623 40.8256 83.7138 41.0517 83.7797 41.2585C83.8455 41.4652 84.0159 41.6216 84.2276 41.6695L84.3627 41.0727ZM110.607 70.3888L109.999 70.4573L110.607 70.3888ZM112.925 90.9588L112.316 91.0273V91.0273L112.925 90.9588ZM113.01 92.4602L112.399 92.4612C112.399 92.7988 112.673 93.0721 113.01 93.0721V92.4602ZM115.153 106.744L115.07 106.138V106.138L115.153 106.744ZM33.6271 106.72L33.7076 106.113L33.6271 106.72ZM35.7479 92.4602V93.0721C36.0855 93.0721 36.3593 92.7988 36.3598 92.4612L35.7479 92.4602ZM35.8339 90.9588L35.2258 90.8903H35.2258L35.8339 90.9588ZM38.1516 70.3888L38.7597 70.4573L38.1516 70.3888ZM64.3951 41.0728L64.5302 41.6696C64.7418 41.6217 64.9122 41.4653 64.9781 41.2586C65.0439 41.0519 64.9954 40.8257 64.8505 40.6642L64.3951 41.0728ZM74.3788 18.1018C66.6356 18.1018 60.3585 24.379 60.3585 32.1222H61.5823C61.5823 25.0548 67.3115 19.3256 74.3788 19.3256V18.1018ZM88.3991 32.1222C88.3991 24.379 82.122 18.1018 74.3788 18.1018V19.3256C81.4461 19.3256 87.1753 25.0548 87.1753 32.1222H88.3991ZM84.8181 41.4813C87.0443 38.9998 88.3991 35.7185 88.3991 32.1222H87.1753C87.1753 35.4053 85.9397 38.3984 83.9072 40.6641L84.8181 41.4813ZM111.215 70.3203C109.567 55.6987 98.8453 43.7244 84.4978 40.4759L84.2276 41.6695C98.0671 44.803 108.41 56.3534 109.999 70.4573L111.215 70.3203ZM113.533 90.8903L111.215 70.3203L109.999 70.4573L112.316 91.0273L113.533 90.8903ZM113.622 92.4591C113.621 91.9412 113.592 91.4177 113.533 90.8903L112.316 91.0273C112.371 91.5098 112.398 91.9883 112.399 92.4612L113.622 92.4591ZM114.113 91.8483H113.01V93.0721H114.113V91.8483ZM121.921 99.6558C121.921 95.3438 118.425 91.8483 114.113 91.8483V93.0721C117.749 93.0721 120.697 96.0197 120.697 99.6558H121.921ZM115.236 107.35C119.078 106.825 121.921 103.527 121.921 99.6558H120.697C120.697 102.922 118.299 105.697 115.07 106.138L115.236 107.35ZM33.5466 107.327C64.8919 111.489 84.6746 111.525 115.236 107.35L115.07 106.138C84.6213 110.297 64.9486 110.262 33.7076 106.113L33.5466 107.327ZM26.8379 99.6397C26.8379 103.517 29.6967 106.815 33.5466 107.327L33.7076 106.113C30.4721 105.684 28.0617 102.91 28.0617 99.6397H26.8379ZM34.6293 91.8483C30.3263 91.8483 26.8379 95.3366 26.8379 99.6397H28.0617C28.0617 96.0125 31.0021 93.0721 34.6293 93.0721V91.8483ZM35.7479 91.8483H34.6293V93.0721H35.7479V91.8483ZM35.2258 90.8903C35.1664 91.4177 35.1369 91.9412 35.1361 92.4591L36.3598 92.4612C36.3606 91.9883 36.3875 91.5098 36.4419 91.0273L35.2258 90.8903ZM37.5436 70.3203L35.2258 90.8903L36.4419 91.0273L38.7597 70.4573L37.5436 70.3203ZM64.2599 40.476C49.9128 43.7248 39.191 55.6989 37.5436 70.3203L38.7597 70.4573C40.3488 56.3536 50.691 44.8033 64.5302 41.6696L64.2599 40.476ZM60.3585 32.1222C60.3585 35.7186 61.7134 38.9999 63.9396 41.4814L64.8505 40.6642C62.8179 38.3985 61.5823 35.4054 61.5823 32.1222H60.3585Z" fill="url(#paint1_linear_26_44)" mask="url(#path-2-inside-1_26_44)"/>
</g>
<defs>
<filter id="filter0_b_26_44" x="14.0414" y="5.30532" width="120.676" height="117.956" filterUnits="userSpaceOnUse" color-interpolation-filters="sRGB">
<feFlood flood-opacity="0" result="BackgroundImageFix"/>
<feGaussianBlur in="BackgroundImage" stdDeviation="6.70422"/>
<feComposite in2="SourceAlpha" operator="in" result="effect1_backgroundBlur_26_44"/>
<feBlend mode="normal" in="SourceGraphic" in2="effect1_backgroundBlur_26_44" result="shape"/>
</filter>
<linearGradient id="paint0_linear_26_44" x1="59.8864" y1="93.9769" x2="110.062" y2="138.033" gradientUnits="userSpaceOnUse">
<stop stop-color="#75EDA1"/>
<stop offset="1" stop-color="#349256"/>
</linearGradient>
<linearGradient id="paint1_linear_26_44" x1="44.2104" y1="45.5306" x2="101.196" y2="109.221" gradientUnits="userSpaceOnUse">
<stop stop-color="white"/>
<stop offset="1" stop-color="white" stop-opacity="0"/>
</linearGradient>
</defs>
</svg>
