<svg width="148" height="148" viewBox="0 0 148 148" fill="none" xmlns="http://www.w3.org/2000/svg">
<path fill-rule="evenodd" clip-rule="evenodd" d="M43.6092 32.562C46.1582 32.562 48.2245 34.6283 48.2245 37.1773L48.2245 111.023C48.2245 113.572 46.1582 115.639 43.6092 115.639C41.0602 115.639 38.9938 113.572 38.9938 111.023L38.9938 37.1773C38.9938 34.6283 41.0602 32.562 43.6092 32.562Z" fill="url(#paint0_linear_26_1299)"/>
<path fill-rule="evenodd" clip-rule="evenodd" d="M74.3784 32.562C76.9274 32.562 78.9938 34.6283 78.9938 37.1773L78.9938 111.023C78.9938 113.572 76.9274 115.639 74.3784 115.639C71.8294 115.639 69.763 113.572 69.763 111.023L69.763 37.1773C69.763 34.6283 71.8294 32.562 74.3784 32.562Z" fill="url(#paint1_linear_26_1299)"/>
<path fill-rule="evenodd" clip-rule="evenodd" d="M105.147 32.562C107.696 32.562 109.762 34.6283 109.762 37.1773L109.762 111.023C109.762 113.572 107.696 115.639 105.147 115.639C102.598 115.639 100.532 113.572 100.532 111.023L100.532 37.1773C100.532 34.6283 102.598 32.562 105.147 32.562Z" fill="url(#paint2_linear_26_1299)"/>
<g filter="url(#filter0_b_26_1299)">
<circle cx="43.6092" cy="92.5617" r="12.3076" transform="rotate(90 43.6092 92.5617)" fill="#BFB5FF" fill-opacity="0.6"/>
<circle cx="43.6092" cy="92.5617" r="11.9999" transform="rotate(90 43.6092 92.5617)" stroke="url(#paint3_linear_26_1299)" stroke-width="0.615382"/>
</g>
<g filter="url(#filter1_b_26_1299)">
<circle cx="74.3785" cy="55.6388" r="12.3076" transform="rotate(90 74.3785 55.6388)" fill="#BFB5FF" fill-opacity="0.6"/>
<circle cx="74.3785" cy="55.6388" r="11.9999" transform="rotate(90 74.3785 55.6388)" stroke="url(#paint4_linear_26_1299)" stroke-width="0.615382"/>
</g>
<g filter="url(#filter2_b_26_1299)">
<circle cx="105.147" cy="92.5617" r="12.3076" transform="rotate(90 105.147 92.5617)" fill="#BFB5FF" fill-opacity="0.6"/>
<circle cx="105.147" cy="92.5617" r="11.9999" transform="rotate(90 105.147 92.5617)" stroke="url(#paint5_linear_26_1299)" stroke-width="0.615382"/>
</g>
<defs>
<filter id="filter0_b_26_1299" x="18.9939" y="67.9464" width="49.2306" height="49.2306" filterUnits="userSpaceOnUse" color-interpolation-filters="sRGB">
<feFlood flood-opacity="0" result="BackgroundImageFix"/>
<feGaussianBlur in="BackgroundImage" stdDeviation="6.15382"/>
<feComposite in2="SourceAlpha" operator="in" result="effect1_backgroundBlur_26_1299"/>
<feBlend mode="normal" in="SourceGraphic" in2="effect1_backgroundBlur_26_1299" result="shape"/>
</filter>
<filter id="filter1_b_26_1299" x="49.7632" y="31.0235" width="49.2306" height="49.2306" filterUnits="userSpaceOnUse" color-interpolation-filters="sRGB">
<feFlood flood-opacity="0" result="BackgroundImageFix"/>
<feGaussianBlur in="BackgroundImage" stdDeviation="6.15382"/>
<feComposite in2="SourceAlpha" operator="in" result="effect1_backgroundBlur_26_1299"/>
<feBlend mode="normal" in="SourceGraphic" in2="effect1_backgroundBlur_26_1299" result="shape"/>
</filter>
<filter id="filter2_b_26_1299" x="80.5318" y="67.9464" width="49.2306" height="49.2306" filterUnits="userSpaceOnUse" color-interpolation-filters="sRGB">
<feFlood flood-opacity="0" result="BackgroundImageFix"/>
<feGaussianBlur in="BackgroundImage" stdDeviation="6.15382"/>
<feComposite in2="SourceAlpha" operator="in" result="effect1_backgroundBlur_26_1299"/>
<feBlend mode="normal" in="SourceGraphic" in2="effect1_backgroundBlur_26_1299" result="shape"/>
</filter>
<linearGradient id="paint0_linear_26_1299" x1="46.2053" y1="56.5263" x2="25.3511" y2="63.2643" gradientUnits="userSpaceOnUse">
<stop stop-color="#917FFB"/>
<stop offset="1" stop-color="#3F2DAF"/>
</linearGradient>
<linearGradient id="paint1_linear_26_1299" x1="76.9746" y1="56.5264" x2="56.1203" y2="63.2644" gradientUnits="userSpaceOnUse">
<stop stop-color="#917FFB"/>
<stop offset="1" stop-color="#3F2DAF"/>
</linearGradient>
<linearGradient id="paint2_linear_26_1299" x1="107.743" y1="56.5263" x2="86.889" y2="63.2643" gradientUnits="userSpaceOnUse">
<stop stop-color="#917FFB"/>
<stop offset="1" stop-color="#3F2DAF"/>
</linearGradient>
<linearGradient id="paint3_linear_26_1299" x1="28.2247" y1="111.023" x2="52.84" y2="83.3309" gradientUnits="userSpaceOnUse">
<stop stop-color="white"/>
<stop offset="1" stop-color="white" stop-opacity="0"/>
</linearGradient>
<linearGradient id="paint4_linear_26_1299" x1="58.9939" y1="74.1002" x2="83.6092" y2="46.4081" gradientUnits="userSpaceOnUse">
<stop stop-color="white"/>
<stop offset="1" stop-color="white" stop-opacity="0"/>
</linearGradient>
<linearGradient id="paint5_linear_26_1299" x1="89.7626" y1="111.023" x2="114.378" y2="83.3309" gradientUnits="userSpaceOnUse">
<stop stop-color="white"/>
<stop offset="1" stop-color="white" stop-opacity="0"/>
</linearGradient>
</defs>
</svg>
